<?xml version="1.0" encoding="UTF-8" standalone="no"?>
<!DOCTYPE svg PUBLIC "-//W3C//DTD SVG 1.1//EN"
 "http://www.w3.org/Graphics/SVG/1.1/DTD/svg11.dtd">
<!-- Generated by graphviz version 2.40.1 (20161225.0304)
 -->
<!-- Title: Clan Pages: 1 -->
<svg width="671pt" height="281pt"
 viewBox="0.00 0.00 671.24 281.00" xmlns="http://www.w3.org/2000/svg" xmlns:xlink="http://www.w3.org/1999/xlink">
<g id="graph0" class="graph" transform="scale(1 1) rotate(0) translate(4 277)">
<title>Clan</title>
<polygon fill="#ffffff" stroke="transparent" points="-4,4 -4,-277 667.2416,-277 667.2416,4 -4,4"/>
<g id="clust1" class="cluster">
<title>clusterClan</title>
<polygon fill="none" stroke="#000000" points="8,-8 8,-265 663.2416,-265 663.2416,-8 8,-8"/>
<text text-anchor="middle" x="335.6208" y="-248.4" font-family="Times,serif" font-size="14.00" fill="#000000">John&#39;s Clan</text>
</g>
<g id="clust2" class="cluster">
<title>clusterJohn</title>
<polygon fill="none" stroke="#000000" points="16,-64 16,-195 428.9848,-195 428.9848,-64 16,-64"/>
<text text-anchor="middle" x="67.736" y="-178.4" font-family="Times,serif" font-size="14.00" fill="#000000">John&#39;s Alliance</text>
</g>
<g id="clust3" class="cluster">
<title>clusterRita</title>
<polygon fill="none" stroke="#000000" points="553.5552,-101 553.5552,-232 653.0268,-232 653.0268,-101 553.5552,-101"/>
<text text-anchor="middle" x="603.291" y="-215.4" font-family="Times,serif" font-size="14.00" fill="#000000">Rita&#39;s Alliance</text>
</g>
<g id="clust4" class="cluster">
<title>clusterAlex</title>
<polygon fill="none" stroke="#000000" points="551.3404,-16 551.3404,-93 655.2416,-93 655.2416,-16 551.3404,-16"/>
<text text-anchor="middle" x="603.291" y="-76.4" font-family="Times,serif" font-size="14.00" fill="#000000">Alex&#39;s Alliance</text>
</g>
<!-- John -->
<g id="node1" class="node">
<title>John</title>
<ellipse fill="none" stroke="#000000" cx="53.2775" cy="-144" rx="29.0567" ry="18"/>
<text text-anchor="middle" x="53.2775" y="-139.8" font-family="Times,serif" font-size="14.00" fill="#000000">John</text>
</g>
<!-- Alex -->
<g id="node2" class="node">
<title>Alex</title>
<ellipse fill="none" stroke="#000000" cx="391.1781" cy="-90" rx="29.6147" ry="18"/>
<text text-anchor="middle" x="391.1781" y="-85.8" font-family="Times,serif" font-size="14.00" fill="#000000">Alex</text>
</g>
<!-- John&#45;&gt;Alex -->
<g id="edge1" class="edge">
<title>John&#45;&gt;Alex</title>
<path fill="none" stroke="#00ff00" d="M64.4156,-127.2305C76.2088,-111.7031 96.3734,-91 120.055,-91 120.055,-91 120.055,-91 284.141,-91 306.2962,-91 331.0298,-90.7831 351.1354,-90.5514"/>
<polygon fill="#00ff00" stroke="#00ff00" points="351.2323,-94.0506 361.1892,-90.4299 351.1477,-87.0511 351.2323,-94.0506"/>
<text text-anchor="middle" x="182.2328" y="-95.2" font-family="Times,serif" font-size="14.00" fill="#000000">leader of</text>
</g>
<!-- Rita -->
<g id="node3" class="node">
<title>Rita</title>
<ellipse fill="none" stroke="#000000" cx="391.1781" cy="-144" rx="27.2622" ry="18"/>
<text text-anchor="middle" x="391.1781" y="-139.8" font-family="Times,serif" font-size="14.00" fill="#000000">Rita</text>
</g>
<!-- John&#45;&gt;Rita -->
<g id="edge2" class="edge">
<title>John&#45;&gt;Rita</title>
<path fill="none" stroke="#00ff00" d="M82.8632,-144C94.4608,-144 107.882,-144 120.055,-144 120.055,-144 120.055,-144 284.141,-144 307.2447,-144 333.1535,-144 353.6935,-144"/>
<polygon fill="#00ff00" stroke="#00ff00" points="353.9019,-147.5001 363.9019,-144 353.9019,-140.5001 353.9019,-147.5001"/>
<text text-anchor="middle" x="182.2328" y="-148.2" font-family="Times,serif" font-size="14.00" fill="#000000">leader of</text>
</g>
<!-- Max -->
<g id="node5" class="node">
<title>Max</title>
<ellipse fill="none" stroke="#000000" cx="603.291" cy="-181" rx="28.9735" ry="18"/>
<text text-anchor="middle" x="603.291" y="-176.8" font-family="Times,serif" font-size="14.00" fill="#000000">Max</text>
</g>
<!-- John&#45;&gt;Max -->
<g id="edge5" class="edge">
<title>John&#45;&gt;Max</title>
<path fill="none" stroke="#ff0000" d="M62.0327,-161.215C72.8874,-179.8682 93.2784,-207 120.055,-207 120.055,-207 120.055,-207 482.6626,-207 511.9055,-207 544.2589,-199.6081 568.0919,-192.707"/>
<polygon fill="#ff0000" stroke="#ff0000" points="569.182,-196.0341 577.7504,-189.8024 567.1661,-189.3306 569.182,-196.0341"/>
<text text-anchor="middle" x="284.141" y="-211.2" font-family="Times,serif" font-size="14.00" fill="#000000">not a leader of</text>
</g>
<!-- Mary -->
<g id="node6" class="node">
<title>Mary</title>
<ellipse fill="none" stroke="#000000" cx="603.291" cy="-42" rx="31.9012" ry="18"/>
<text text-anchor="middle" x="603.291" y="-37.8" font-family="Times,serif" font-size="14.00" fill="#000000">Mary</text>
</g>
<!-- Alex&#45;&gt;Mary -->
<g id="edge6" class="edge">
<title>Alex&#45;&gt;Mary</title>
<path fill="none" stroke="#00ff00" d="M419.3451,-83.626C456.4079,-75.2389 521.7546,-60.4513 563.7563,-50.9465"/>
<polygon fill="#00ff00" stroke="#00ff00" points="564.6598,-54.3306 573.6406,-48.7097 563.1147,-47.5032 564.6598,-54.3306"/>
<text text-anchor="middle" x="482.6626" y="-78.2" font-family="Times,serif" font-size="14.00" fill="#000000">leader of</text>
</g>
<!-- Sam -->
<g id="node4" class="node">
<title>Sam</title>
<ellipse fill="none" stroke="#000000" cx="603.291" cy="-127" rx="28.4088" ry="18"/>
<text text-anchor="middle" x="603.291" y="-122.8" font-family="Times,serif" font-size="14.00" fill="#000000">Sam</text>
</g>
<!-- Rita&#45;&gt;Sam -->
<g id="edge3" class="edge">
<title>Rita&#45;&gt;Sam</title>
<path fill="none" stroke="#00ff00" d="M417.0748,-138.5611C429.4075,-136.1934 444.3981,-133.636 457.9848,-132.2 494.0921,-128.3838 535.4961,-127.2144 564.8462,-126.9222"/>
<polygon fill="#00ff00" stroke="#00ff00" points="565.1065,-130.4206 575.0818,-126.851 565.0577,-123.4208 565.1065,-130.4206"/>
<text text-anchor="middle" x="482.6626" y="-136.2" font-family="Times,serif" font-size="14.00" fill="#000000">leader of</text>
</g>
<!-- Rita&#45;&gt;Max -->
<g id="edge4" class="edge">
<title>Rita&#45;&gt;Max</title>
<path fill="none" stroke="#00ff00" d="M417.6135,-148.6113C454.856,-155.1077 522.9677,-166.9888 565.5342,-174.4139"/>
<polygon fill="#00ff00" stroke="#00ff00" points="565.058,-177.8836 575.5107,-176.1541 566.261,-170.9877 565.058,-177.8836"/>
<text text-anchor="middle" x="482.6626" y="-168.2" font-family="Times,serif" font-size="14.00" fill="#000000">leader of</text>
</g>
</g>
</svg>
